<?xml version="1.0" encoding="utf-8"?>
<!-- Generator: Adobe Illustrator 25.4.1, SVG Export Plug-In . SVG Version: 6.00 Build 0)  -->
<svg version="1.1" id="Layer_1" xmlns="http://www.w3.org/2000/svg" xmlns:xlink="http://www.w3.org/1999/xlink" x="0px" y="0px"
	 viewBox="0 0 117 117" style="enable-background:new 0 0 117 117;" xml:space="preserve">
<style type="text/css">
	.st0{fill:none;stroke:#000000;stroke-miterlimit:10;}
	.st1{stroke:#000000;stroke-width:4;stroke-miterlimit:10;}
	.st2{fill:none;stroke:#000000;stroke-width:4;stroke-miterlimit:10;}
	.st3{fill:#FFFFFF;}
	.st4{fill:none;stroke:#000000;}
	.st5{fill:none;stroke:#000000;stroke-width:2;stroke-miterlimit:10;}
	.st6{fill:none;stroke:#3B51A2;stroke-width:4;stroke-miterlimit:10;}
	.st7{fill:none;stroke:#821618;stroke-width:2;stroke-miterlimit:10;}
	.st8{fill:#3B51A2;}
	.st9{fill:#FFFFFF;stroke:#FFFFFF;stroke-miterlimit:10;}
	.st10{fill:none;stroke:#12284C;stroke-width:4;stroke-miterlimit:10;}
	.st11{fill:#12284C;}
	.st12{fill:#821618;}
	.st13{fill:#490E67;}
	.st14{fill:#3DAE2B;}
	.st15{fill:none;stroke:#821618;stroke-width:6;stroke-miterlimit:10;}
	.st16{fill:none;stroke:#3DAE2B;stroke-width:6;stroke-miterlimit:10;}
</style>
<g>
	<g>
		<path class="st12" d="M58.9,108.8C31.38,108.8,9,86.41,9,58.9S31.38,9,58.9,9s49.9,22.38,49.9,49.9S86.41,108.8,58.9,108.8z
			 M58.9,11.43c-26.17,0-47.46,21.29-47.46,47.46c0,26.17,21.29,47.46,47.46,47.46s47.46-21.29,47.46-47.46
			C106.36,32.73,85.07,11.43,58.9,11.43z"/>
		<circle class="st11" cx="58.9" cy="58.9" r="43.81"/>
		<g>
			<g>
				<path class="st3" d="M49.02,27.2h4.78v1.62h-1.57v7.02h-1.67v-7.02h-1.53V27.2z"/>
				<path class="st3" d="M57.75,29.29c0.6,0,1.17,0.15,1.7,0.45c0.53,0.3,0.94,0.71,1.24,1.23c0.3,0.52,0.45,1.08,0.45,1.67
					c0,0.6-0.15,1.17-0.45,1.69c-0.3,0.52-0.71,0.94-1.22,1.23c-0.52,0.3-1.09,0.44-1.71,0.44c-0.92,0-1.7-0.33-2.35-0.98
					c-0.65-0.65-0.97-1.44-0.97-2.38c0-1,0.37-1.83,1.1-2.5C56.18,29.58,56.92,29.29,57.75,29.29z M57.78,30.8
					c-0.5,0-0.91,0.17-1.24,0.52c-0.33,0.35-0.5,0.79-0.5,1.33c0,0.56,0.16,1.01,0.49,1.35c0.33,0.34,0.74,0.52,1.24,0.52
					c0.5,0,0.92-0.17,1.25-0.52c0.33-0.35,0.5-0.8,0.5-1.35c0-0.55-0.16-0.99-0.49-1.34C58.71,30.97,58.29,30.8,57.78,30.8z"/>
				<path class="st3" d="M64.05,29.45v0.7c0.29-0.29,0.6-0.51,0.94-0.65c0.34-0.14,0.7-0.22,1.08-0.22c0.83,0,1.54,0.32,2.13,0.95
					c0.58,0.63,0.88,1.44,0.88,2.43c0,0.95-0.3,1.75-0.9,2.39c-0.6,0.64-1.32,0.96-2.14,0.96c-0.37,0-0.71-0.07-1.03-0.2
					c-0.32-0.13-0.63-0.35-0.95-0.64v3.01h-1.59v-8.73H64.05z M65.73,30.77c-0.51,0-0.92,0.17-1.26,0.52
					c-0.33,0.34-0.5,0.8-0.5,1.35c0,0.57,0.17,1.03,0.5,1.38c0.33,0.35,0.75,0.53,1.26,0.53c0.49,0,0.9-0.18,1.24-0.53
					c0.33-0.36,0.5-0.81,0.5-1.36c0-0.55-0.16-1-0.49-1.35C66.65,30.94,66.23,30.77,65.73,30.77z"/>
			</g>
			<g>
				<path class="st3" d="M45.88,76.31c1.29,0,2.26-0.09,2.9-0.28s1.14-0.52,1.51-0.99c0.37-0.47,0.67-1.17,0.91-2.11h3.44
					l-0.69,10.7H26.58v-1.97c0.84-1.91,2.05-3.99,3.63-6.24c1.58-2.25,3.51-4.71,5.78-7.38c2.15-2.53,3.79-4.61,4.91-6.24
					c1.13-1.63,1.97-3.18,2.52-4.63s0.84-2.96,0.84-4.51c0-2.19-0.49-3.91-1.46-5.15s-2.31-1.87-4-1.87c-1.59,0-2.91,0.56-3.96,1.69
					c-1.05,1.13-1.81,2.9-2.29,5.33h-5.38v-7.05c2.43-0.98,4.33-1.66,5.71-2.05c1.37-0.39,2.73-0.68,4.08-0.88
					c1.34-0.2,2.8-0.3,4.38-0.3c2.93,0,5.32,0.39,7.17,1.18c1.85,0.79,3.19,1.85,4.02,3.2c0.83,1.34,1.24,2.91,1.24,4.71
					c0,1.57-0.29,3.04-0.88,4.39s-1.6,2.9-3.05,4.63c-1.44,1.73-3.88,4.21-7.31,7.44c-1.53,1.49-2.97,3-4.3,4.53
					c-1.33,1.52-2.32,2.71-2.96,3.57v0.3H45.88z"/>
				<path class="st3" d="M64.29,81.77V74.3h5.41c0.5,2.17,1.29,3.79,2.39,4.86s2.51,1.6,4.24,1.6c2.17,0,3.77-0.67,4.81-2.02
					c1.04-1.34,1.55-3.42,1.55-6.23c0-2.77-0.67-4.88-2-6.33S77.43,64,74.9,64c-0.98,0-2.03,0.09-3.15,0.27
					c-1.13,0.18-2.13,0.4-3,0.66l-2.69-1.67V42.84h17.66c0.74,0,1.27-0.05,1.61-0.15s0.62-0.27,0.84-0.51
					c0.22-0.24,0.46-0.68,0.72-1.31h3.29l-0.6,9.53H71.22v10.76c1.2-0.36,2.42-0.62,3.66-0.79s2.77-0.25,4.59-0.25
					c2.47,0,4.64,0.46,6.5,1.37c1.86,0.92,3.31,2.25,4.33,3.99c1.03,1.74,1.54,3.79,1.54,6.14c0,2.75-0.62,5.05-1.85,6.92
					c-1.23,1.86-3.02,3.26-5.35,4.18c-2.33,0.93-5.12,1.39-8.37,1.39c-2.09,0-4.22-0.21-6.39-0.63
					C67.71,83.06,65.84,82.49,64.29,81.77z"/>
			</g>
		</g>
	</g>
</g>
</svg>
