<?xml version="1.0" encoding="UTF-8"?>
<!-- Generated by Pixelmator Pro 2.4.7 -->
<svg width="117" height="117" viewBox="0 0 117 117" xmlns="http://www.w3.org/2000/svg" xmlns:xlink="http://www.w3.org/1999/xlink">
    <g id="cwe-logo-options-updated-06">
        <path id="Path" fill="#3dae2b" stroke="none" d="M 59.000004 109 C 31.429075 109 9 86.57093 9 59 C 9 31.42907 31.429075 9 59.000004 9 C 86.570938 9 109 31.42907 109 59 C 109 86.57093 86.570938 109 59.000004 109 Z M 59.000004 11.438507 C 32.774189 11.438507 11.438513 32.774185 11.438513 59 C 11.438513 85.225815 32.774189 106.561493 59.000004 106.561493 C 85.225815 106.561493 106.561493 85.225815 106.561493 59 C 106.561493 32.774185 85.225815 11.438507 59.000004 11.438507 Z"/>
        <path id="path1" fill="#490e67" stroke="none" d="M 102.903725 59 C 102.903725 83.24736 83.24736 102.903717 59.000004 102.903717 C 34.752647 102.903717 15.096282 83.24736 15.096282 59 C 15.096282 34.75264 34.752647 15.096275 59.000004 15.096275 C 83.24736 15.096275 102.903725 34.75264 102.903725 59 Z"/>
        <g id="Group">
            <g id="g1">
                <path id="path2" fill="#ffffff" stroke="none" d="M 47.654362 23.263985 L 54.592327 23.263985 L 54.592327 24.813622 L 51.883743 24.813622 L 51.883743 34.609627 L 50.352463 34.609627 L 50.352463 24.813622 L 47.654362 24.813622 L 47.654362 23.263985 Z"/>
                <path id="path3" fill="#ffffff" stroke="none" d="M 53.404533 30.904655 C 53.404533 29.900414 53.800465 29.008919 54.592327 28.227539 C 55.38681 27.446167 56.294041 27.055481 57.321884 27.055481 C 58.378578 27.055481 59.30154 27.440926 60.090782 28.209183 C 60.880016 28.977448 61.275948 29.874191 61.275948 30.902039 C 61.275948 31.935135 60.887882 32.844978 60.114376 33.631592 C 59.340874 34.418213 58.44413 34.811523 57.42939 34.811523 C 56.343861 34.811523 55.399921 34.423462 54.602814 33.644707 C 53.803085 32.868584 53.404533 31.956108 53.404533 30.904655 Z M 59.778755 30.909904 C 59.778755 30.285858 59.542767 29.743088 59.068176 29.281601 C 58.593586 28.820129 58.027218 28.589386 57.374329 28.589386 C 56.703083 28.589386 56.126228 28.822746 55.643768 29.289467 C 55.158688 29.756203 54.917458 30.314697 54.917458 30.962341 C 54.917458 31.581154 55.161312 32.123909 55.651634 32.585396 C 56.14196 33.049507 56.71619 33.282867 57.374329 33.282867 C 58.016731 33.282867 58.575233 33.044258 59.05769 32.569664 C 59.540146 32.092453 59.778755 31.5392 59.778755 30.909904 Z"/>
                <path id="path4" fill="#ffffff" stroke="none" d="M 63.764282 27.262627 L 63.764282 28.741463 C 64.506325 27.619217 65.455505 27.058105 66.611832 27.058105 C 67.558395 27.058105 68.37648 27.435684 69.060837 28.193451 C 69.745193 28.951233 70.08606 29.853218 70.08606 30.904655 C 70.08606 31.966599 69.739944 32.884315 69.045105 33.655197 C 68.352882 34.428703 67.532173 34.811523 66.590858 34.811523 C 66.042847 34.811523 65.521057 34.669937 65.020241 34.384132 C 64.519432 34.098328 64.105148 33.686661 63.780014 33.146523 L 63.780014 38.052391 L 62.230377 38.052391 L 62.230377 27.262627 L 63.764282 27.262627 Z M 68.468254 30.904655 C 68.468254 30.257011 68.224396 29.693268 67.739319 29.208183 C 67.254234 28.725731 66.682632 28.48188 66.02449 28.48188 C 65.355873 28.48188 64.776398 28.72049 64.286072 29.202942 C 63.795746 29.682777 63.551895 30.25177 63.551895 30.904655 C 63.551895 31.575905 63.795746 32.157997 64.275581 32.648323 C 64.758041 33.141273 65.329651 33.387749 65.987785 33.387749 C 66.669518 33.387749 67.254234 33.143898 67.739319 32.658813 C 68.224396 32.171112 68.468254 31.586395 68.468254 30.904655 Z"/>
            </g>
        </g>
        <g id="g2">
            <g id="g3">
                <path id="path5" fill="#ffffff" stroke="none" d="M 49.424252 78.893547 L 49.424252 82.590637 C 47.782845 81.604752 46.345959 81.111801 45.11359 81.111801 C 43.881222 81.111801 42.895332 81.536575 42.15591 82.383507 C 41.416492 83.230423 41.04678 84.371017 41.04678 85.802658 C 41.04678 87.158272 41.434841 88.243805 42.213593 89.056633 C 42.992344 89.869476 44.030682 90.275894 45.333843 90.275894 C 46.474438 90.275894 47.837906 89.817039 49.424252 88.901932 L 49.424252 92.575439 C 47.643875 93.16803 46.162411 93.46431 44.974621 93.46431 C 42.932041 93.46431 41.19886 92.714409 39.775082 91.217216 C 38.348682 89.720016 37.638107 87.892441 37.638107 85.734497 C 37.638107 83.539833 38.364414 81.680786 39.817036 80.160004 C 41.269657 78.639206 43.034298 77.878807 45.116215 77.878807 C 46.456085 77.878807 47.892971 78.217056 49.424252 78.893547 Z"/>
                <path id="path6" fill="#ffffff" stroke="none" d="M 49.547489 78.085953 L 52.457973 78.085953 L 54.901726 88.427345 L 57.450367 78.085953 L 59.53228 78.085953 L 62.044212 88.474541 L 64.535164 78.085953 L 67.445648 78.085953 L 63.772148 93.257172 L 60.699097 93.257172 L 58.472973 83.954117 L 56.244225 93.257172 L 53.18166 93.257172 L 49.547489 78.085953 Z"/>
                <path id="path7" fill="#ffffff" stroke="none" d="M 68.284706 78.085953 L 76.824745 78.085953 L 76.824745 81.09082 L 71.554413 81.09082 L 71.554413 84.153397 L 76.824745 84.153397 L 76.824745 87.111076 L 71.554413 87.111076 L 71.554413 90.254913 L 76.824745 90.254913 L 76.824745 93.259796 L 68.284706 93.259796 L 68.284706 78.085953 Z"/>
            </g>
        </g>
        <g id="g4">
            <g id="g5">
                <path id="path8" fill="#ffffff" stroke="none" d="M 29.01416 41.508255 L 35.55357 41.508255 L 35.55357 53.202633 L 46.298759 53.202633 L 46.298759 41.508255 L 52.838169 41.508255 L 52.838169 71.8507 L 46.30138 71.8507 L 46.30138 59.786617 L 35.55619 59.786617 L 35.55619 71.8507 L 29.01416 71.8507 L 29.01416 41.508255 Z"/>
                <path id="path9" fill="#ffffff" stroke="none" d="M 54.450733 41.508255 L 60.271698 41.508255 L 65.164459 62.191044 L 70.261734 41.508255 L 74.420326 41.508255 L 79.444176 62.285439 L 84.426086 41.508255 L 90.247055 41.508255 L 82.900055 71.8507 L 76.751328 71.8507 L 72.301697 53.247208 L 67.8442 71.8507 L 61.719074 71.8507 L 54.450733 41.508255 Z"/>
            </g>
        </g>
    </g>
</svg>
